<svg width="315" height="38" viewBox="0 0 315 38" fill="none" xmlns="http://www.w3.org/2000/svg">
<path d="M50.1484 8.22461L47.3242 16H46.1699L49.4219 7.46875H50.166L50.1484 8.22461ZM52.5156 16L49.6855 8.22461L49.668 7.46875H50.4121L53.6758 16H52.5156ZM52.3691 12.8418V13.7676H47.5762V12.8418H52.3691ZM58.0996 7.42188V16H57.0156V8.77539L54.8301 9.57227V8.59375L57.9297 7.42188H58.0996ZM67.5859 12.0098H65.4238L65.4121 11.1016H67.375C67.6992 11.1016 67.9824 11.0469 68.2246 10.9375C68.4668 10.8281 68.6543 10.6719 68.7871 10.4688C68.9238 10.2617 68.9922 10.0156 68.9922 9.73047C68.9922 9.41797 68.9316 9.16406 68.8105 8.96875C68.6934 8.76953 68.5117 8.625 68.2656 8.53516C68.0234 8.44141 67.7148 8.39453 67.3398 8.39453H65.6758V16H64.5449V7.46875H67.3398C67.7773 7.46875 68.168 7.51367 68.5117 7.60352C68.8555 7.68945 69.1465 7.82617 69.3848 8.01367C69.627 8.19727 69.8105 8.43164 69.9355 8.7168C70.0605 9.00195 70.123 9.34375 70.123 9.74219C70.123 10.0938 70.0332 10.4121 69.8535 10.6973C69.6738 10.9785 69.4238 11.209 69.1035 11.3887C68.7871 11.5684 68.416 11.6836 67.9902 11.7344L67.5859 12.0098ZM67.5332 16H64.9785L65.6172 15.0801H67.5332C67.8926 15.0801 68.1973 15.0176 68.4473 14.8926C68.7012 14.7676 68.8945 14.5918 69.0273 14.3652C69.1602 14.1348 69.2266 13.8633 69.2266 13.5508C69.2266 13.2344 69.1699 12.9609 69.0566 12.7305C68.9434 12.5 68.7656 12.3223 68.5234 12.1973C68.2812 12.0723 67.9688 12.0098 67.5859 12.0098H65.9746L65.9863 11.1016H68.1895L68.4297 11.4297C68.8398 11.4648 69.1875 11.582 69.4727 11.7812C69.7578 11.9766 69.9746 12.2266 70.123 12.5312C70.2754 12.8359 70.3516 13.1719 70.3516 13.5391C70.3516 14.0703 70.2344 14.5195 70 14.8867C69.7695 15.25 69.4434 15.5273 69.0215 15.7188C68.5996 15.9062 68.1035 16 67.5332 16ZM72.0215 7.46875H74.8457C75.4863 7.46875 76.0273 7.56641 76.4688 7.76172C76.9141 7.95703 77.252 8.24609 77.4824 8.62891C77.7168 9.00781 77.834 9.47461 77.834 10.0293C77.834 10.4199 77.7539 10.7773 77.5938 11.1016C77.4375 11.4219 77.2109 11.6953 76.9141 11.9219C76.6211 12.1445 76.2695 12.3105 75.8594 12.4199L75.543 12.543H72.8887L72.877 11.623H74.8809C75.2871 11.623 75.625 11.5527 75.8945 11.4121C76.1641 11.2676 76.3672 11.0742 76.5039 10.832C76.6406 10.5898 76.709 10.3223 76.709 10.0293C76.709 9.70117 76.6445 9.41406 76.5156 9.16797C76.3867 8.92188 76.1836 8.73242 75.9062 8.59961C75.6328 8.46289 75.2793 8.39453 74.8457 8.39453H73.1523V16H72.0215V7.46875ZM77.0078 16L74.9336 12.1328L76.1113 12.127L78.2148 15.9297V16H77.0078ZM85.9844 11.4648V12.0039C85.9844 12.6445 85.9043 13.2188 85.7441 13.7266C85.584 14.2344 85.3535 14.666 85.0527 15.0215C84.752 15.377 84.3906 15.6484 83.9688 15.8359C83.5508 16.0234 83.082 16.1172 82.5625 16.1172C82.0586 16.1172 81.5957 16.0234 81.1738 15.8359C80.7559 15.6484 80.3926 15.377 80.084 15.0215C79.7793 14.666 79.543 14.2344 79.375 13.7266C79.207 13.2188 79.123 12.6445 79.123 12.0039V11.4648C79.123 10.8242 79.2051 10.252 79.3691 9.74805C79.5371 9.24023 79.7734 8.80859 80.0781 8.45312C80.3828 8.09375 80.7441 7.82031 81.1621 7.63281C81.584 7.44531 82.0469 7.35156 82.5508 7.35156C83.0703 7.35156 83.5391 7.44531 83.957 7.63281C84.3789 7.82031 84.7402 8.09375 85.041 8.45312C85.3457 8.80859 85.5781 9.24023 85.7383 9.74805C85.9023 10.252 85.9844 10.8242 85.9844 11.4648ZM84.8652 12.0039V11.4531C84.8652 10.9453 84.8125 10.4961 84.707 10.1055C84.6055 9.71484 84.4551 9.38672 84.2559 9.12109C84.0566 8.85547 83.8125 8.6543 83.5234 8.51758C83.2383 8.38086 82.9141 8.3125 82.5508 8.3125C82.1992 8.3125 81.8809 8.38086 81.5957 8.51758C81.3145 8.6543 81.0723 8.85547 80.8691 9.12109C80.6699 9.38672 80.5156 9.71484 80.4062 10.1055C80.2969 10.4961 80.2422 10.9453 80.2422 11.4531V12.0039C80.2422 12.5156 80.2969 12.9688 80.4062 13.3633C80.5156 13.7539 80.6719 14.084 80.875 14.3535C81.082 14.6191 81.3262 14.8203 81.6074 14.957C81.8926 15.0938 82.2109 15.1621 82.5625 15.1621C82.9297 15.1621 83.2559 15.0938 83.541 14.957C83.8262 14.8203 84.0664 14.6191 84.2617 14.3535C84.4609 14.084 84.6113 13.7539 84.7129 13.3633C84.8145 12.9688 84.8652 12.5156 84.8652 12.0039ZM88.8086 7.46875V16H87.6777V7.46875H88.8086ZM93.959 7.46875L90.4141 11.4473L88.4219 13.5156L88.2344 12.3086L89.7344 10.6562L92.5996 7.46875H93.959ZM92.8691 16L89.7109 11.8398L90.3848 10.9434L94.2168 16H92.8691ZM100.633 15.0801V16H96.1152V15.0801H100.633ZM96.3438 7.46875V16H95.2129V7.46875H96.3438ZM100.035 11.1367V12.0566H96.1152V11.1367H100.035ZM100.574 7.46875V8.39453H96.1152V7.46875H100.574ZM102.033 7.46875H104.857C105.498 7.46875 106.039 7.56641 106.48 7.76172C106.926 7.95703 107.264 8.24609 107.494 8.62891C107.729 9.00781 107.846 9.47461 107.846 10.0293C107.846 10.4199 107.766 10.7773 107.605 11.1016C107.449 11.4219 107.223 11.6953 106.926 11.9219C106.633 12.1445 106.281 12.3105 105.871 12.4199L105.555 12.543H102.9L102.889 11.623H104.893C105.299 11.623 105.637 11.5527 105.906 11.4121C106.176 11.2676 106.379 11.0742 106.516 10.832C106.652 10.5898 106.721 10.3223 106.721 10.0293C106.721 9.70117 106.656 9.41406 106.527 9.16797C106.398 8.92188 106.195 8.73242 105.918 8.59961C105.645 8.46289 105.291 8.39453 104.857 8.39453H103.164V16H102.033V7.46875ZM107.02 16L104.945 12.1328L106.123 12.127L108.227 15.9297V16H107.02ZM113.975 13.8438C113.975 13.6445 113.943 13.4688 113.881 13.3164C113.822 13.1602 113.717 13.0195 113.564 12.8945C113.416 12.7695 113.209 12.6504 112.943 12.5371C112.682 12.4238 112.35 12.3086 111.947 12.1914C111.525 12.0664 111.145 11.9277 110.805 11.7754C110.465 11.6191 110.174 11.4414 109.932 11.2422C109.689 11.043 109.504 10.8145 109.375 10.5566C109.246 10.2988 109.182 10.0039 109.182 9.67188C109.182 9.33984 109.25 9.0332 109.387 8.75195C109.523 8.4707 109.719 8.22656 109.973 8.01953C110.23 7.80859 110.537 7.64453 110.893 7.52734C111.248 7.41016 111.645 7.35156 112.082 7.35156C112.723 7.35156 113.266 7.47461 113.711 7.7207C114.16 7.96289 114.502 8.28125 114.736 8.67578C114.971 9.06641 115.088 9.48438 115.088 9.92969H113.963C113.963 9.60938 113.895 9.32617 113.758 9.08008C113.621 8.83008 113.414 8.63477 113.137 8.49414C112.859 8.34961 112.508 8.27734 112.082 8.27734C111.68 8.27734 111.348 8.33789 111.086 8.45898C110.824 8.58008 110.629 8.74414 110.5 8.95117C110.375 9.1582 110.312 9.39453 110.312 9.66016C110.312 9.83984 110.35 10.0039 110.424 10.1523C110.502 10.2969 110.621 10.4316 110.781 10.5566C110.945 10.6816 111.152 10.7969 111.402 10.9023C111.656 11.0078 111.959 11.1094 112.311 11.207C112.795 11.3438 113.213 11.4961 113.564 11.6641C113.916 11.832 114.205 12.0215 114.432 12.2324C114.662 12.4395 114.832 12.6758 114.941 12.9414C115.055 13.2031 115.111 13.5 115.111 13.832C115.111 14.1797 115.041 14.4941 114.9 14.7754C114.76 15.0566 114.559 15.2969 114.297 15.4961C114.035 15.6953 113.721 15.8496 113.354 15.959C112.99 16.0645 112.584 16.1172 112.135 16.1172C111.74 16.1172 111.352 16.0625 110.969 15.9531C110.59 15.8438 110.244 15.6797 109.932 15.4609C109.623 15.2422 109.375 14.9727 109.188 14.6523C109.004 14.3281 108.912 13.9531 108.912 13.5273H110.037C110.037 13.8203 110.094 14.0723 110.207 14.2832C110.32 14.4902 110.475 14.6621 110.67 14.7988C110.869 14.9355 111.094 15.0371 111.344 15.1035C111.598 15.166 111.861 15.1973 112.135 15.1973C112.529 15.1973 112.863 15.1426 113.137 15.0332C113.41 14.9238 113.617 14.7676 113.758 14.5645C113.902 14.3613 113.975 14.1211 113.975 13.8438ZM53.2949 25.752V28.875C53.1895 29.0312 53.0215 29.207 52.791 29.4023C52.5605 29.5938 52.2422 29.7617 51.8359 29.9062C51.4336 30.0469 50.9141 30.1172 50.2773 30.1172C49.7578 30.1172 49.2793 30.0273 48.8418 29.8477C48.4082 29.6641 48.0312 29.3984 47.7109 29.0508C47.3945 28.6992 47.1484 28.2734 46.9727 27.7734C46.8008 27.2695 46.7148 26.6992 46.7148 26.0625V25.4004C46.7148 24.7637 46.7891 24.1953 46.9375 23.6953C47.0898 23.1953 47.3125 22.7715 47.6055 22.4238C47.8984 22.0723 48.2578 21.8066 48.6836 21.627C49.1094 21.4434 49.5977 21.3516 50.1484 21.3516C50.8008 21.3516 51.3457 21.4648 51.7832 21.6914C52.2246 21.9141 52.5684 22.2227 52.8145 22.6172C53.0645 23.0117 53.2246 23.4609 53.2949 23.9648H52.1641C52.1133 23.6562 52.0117 23.375 51.8594 23.1211C51.7109 22.8672 51.498 22.6641 51.2207 22.5117C50.9434 22.3555 50.5859 22.2773 50.1484 22.2773C49.7539 22.2773 49.4121 22.3496 49.123 22.4941C48.834 22.6387 48.5957 22.8457 48.4082 23.1152C48.2207 23.3848 48.0801 23.7109 47.9863 24.0938C47.8965 24.4766 47.8516 24.9082 47.8516 25.3887V26.0625C47.8516 26.5547 47.9082 26.9941 48.0215 27.3809C48.1387 27.7676 48.3047 28.0977 48.5195 28.3711C48.7344 28.6406 48.9902 28.8457 49.2871 28.9863C49.5879 29.127 49.9199 29.1973 50.2832 29.1973C50.6855 29.1973 51.0117 29.1641 51.2617 29.0977C51.5117 29.0273 51.707 28.9453 51.8477 28.8516C51.9883 28.7539 52.0957 28.6621 52.1699 28.5762V26.666H50.1953V25.752H53.2949ZM55.1699 21.4688H57.9941C58.6348 21.4688 59.1758 21.5664 59.6172 21.7617C60.0625 21.957 60.4004 22.2461 60.6309 22.6289C60.8652 23.0078 60.9824 23.4746 60.9824 24.0293C60.9824 24.4199 60.9023 24.7773 60.7422 25.1016C60.5859 25.4219 60.3594 25.6953 60.0625 25.9219C59.7695 26.1445 59.418 26.3105 59.0078 26.4199L58.6914 26.543H56.0371L56.0254 25.623H58.0293C58.4355 25.623 58.7734 25.5527 59.043 25.4121C59.3125 25.2676 59.5156 25.0742 59.6523 24.832C59.7891 24.5898 59.8574 24.3223 59.8574 24.0293C59.8574 23.7012 59.793 23.4141 59.6641 23.168C59.5352 22.9219 59.332 22.7324 59.0547 22.5996C58.7812 22.4629 58.4277 22.3945 57.9941 22.3945H56.3008V30H55.1699V21.4688ZM60.1562 30L58.082 26.1328L59.2598 26.127L61.3633 29.9297V30H60.1562ZM69.1328 25.4648V26.0039C69.1328 26.6445 69.0527 27.2188 68.8926 27.7266C68.7324 28.2344 68.502 28.666 68.2012 29.0215C67.9004 29.377 67.5391 29.6484 67.1172 29.8359C66.6992 30.0234 66.2305 30.1172 65.7109 30.1172C65.207 30.1172 64.7441 30.0234 64.3223 29.8359C63.9043 29.6484 63.541 29.377 63.2324 29.0215C62.9277 28.666 62.6914 28.2344 62.5234 27.7266C62.3555 27.2188 62.2715 26.6445 62.2715 26.0039V25.4648C62.2715 24.8242 62.3535 24.252 62.5176 23.748C62.6855 23.2402 62.9219 22.8086 63.2266 22.4531C63.5312 22.0938 63.8926 21.8203 64.3105 21.6328C64.7324 21.4453 65.1953 21.3516 65.6992 21.3516C66.2188 21.3516 66.6875 21.4453 67.1055 21.6328C67.5273 21.8203 67.8887 22.0938 68.1895 22.4531C68.4941 22.8086 68.7266 23.2402 68.8867 23.748C69.0508 24.252 69.1328 24.8242 69.1328 25.4648ZM68.0137 26.0039V25.4531C68.0137 24.9453 67.9609 24.4961 67.8555 24.1055C67.7539 23.7148 67.6035 23.3867 67.4043 23.1211C67.2051 22.8555 66.9609 22.6543 66.6719 22.5176C66.3867 22.3809 66.0625 22.3125 65.6992 22.3125C65.3477 22.3125 65.0293 22.3809 64.7441 22.5176C64.4629 22.6543 64.2207 22.8555 64.0176 23.1211C63.8184 23.3867 63.6641 23.7148 63.5547 24.1055C63.4453 24.4961 63.3906 24.9453 63.3906 25.4531V26.0039C63.3906 26.5156 63.4453 26.9688 63.5547 27.3633C63.6641 27.7539 63.8203 28.084 64.0234 28.3535C64.2305 28.6191 64.4746 28.8203 64.7559 28.957C65.041 29.0938 65.3594 29.1621 65.7109 29.1621C66.0781 29.1621 66.4043 29.0938 66.6895 28.957C66.9746 28.8203 67.2148 28.6191 67.4102 28.3535C67.6094 28.084 67.7598 27.7539 67.8613 27.3633C67.9629 26.9688 68.0137 26.5156 68.0137 26.0039ZM75.707 21.4688H76.832V27.2402C76.832 27.8809 76.6895 28.4141 76.4043 28.8398C76.1191 29.2656 75.7402 29.5859 75.2676 29.8008C74.7988 30.0117 74.2891 30.1172 73.7383 30.1172C73.1602 30.1172 72.6367 30.0117 72.168 29.8008C71.7031 29.5859 71.334 29.2656 71.0605 28.8398C70.791 28.4141 70.6562 27.8809 70.6562 27.2402V21.4688H71.7754V27.2402C71.7754 27.6855 71.8574 28.0527 72.0215 28.3418C72.1855 28.6309 72.4141 28.8457 72.707 28.9863C73.0039 29.127 73.3477 29.1973 73.7383 29.1973C74.1328 29.1973 74.4766 29.127 74.7695 28.9863C75.0664 28.8457 75.2969 28.6309 75.4609 28.3418C75.625 28.0527 75.707 27.6855 75.707 27.2402V21.4688ZM81.7539 26.6543H79.4746V25.7344H81.7539C82.1953 25.7344 82.5527 25.6641 82.8262 25.5234C83.0996 25.3828 83.2988 25.1875 83.4238 24.9375C83.5527 24.6875 83.6172 24.4023 83.6172 24.082C83.6172 23.7891 83.5527 23.5137 83.4238 23.2559C83.2988 22.998 83.0996 22.791 82.8262 22.6348C82.5527 22.4746 82.1953 22.3945 81.7539 22.3945H79.7383V30H78.6074V21.4688H81.7539C82.3984 21.4688 82.9434 21.5801 83.3887 21.8027C83.834 22.0254 84.1719 22.334 84.4023 22.7285C84.6328 23.1191 84.748 23.5664 84.748 24.0703C84.748 24.6172 84.6328 25.084 84.4023 25.4707C84.1719 25.8574 83.834 26.1523 83.3887 26.3555C82.9434 26.5547 82.3984 26.6543 81.7539 26.6543Z" fill="white"/>
<path d="M26.0615 31.9434H22.8984L19.5059 24.7451H3.81055L4.89551 22.4365H18.417L11.6426 8.06543L13.083 5H13.0869L26.0615 31.9434Z" fill="white"/>
<path d="M18.4531 8.10079L19.8785 5.07227L32.8431 31.9424H29.7207L18.4531 8.10079Z" fill="white"/>
<path d="M3.12207 31.9995H0L2.33105 27.1675H5.40625L3.12207 31.9995Z" fill="white"/>
<path d="M157.415 14H156.307L159.511 5.27273H160.602L163.807 14H162.699L160.091 6.65341H160.023L157.415 14ZM157.824 10.5909H162.29V11.5284H157.824V10.5909ZM169.07 7.45455V8.39205H166.036V14H165.03V7.45455H169.07ZM172.942 14.1364C172.311 14.1364 171.767 13.9972 171.31 13.7188C170.855 13.4375 170.505 13.0455 170.257 12.5426C170.013 12.0369 169.891 11.4489 169.891 10.7784C169.891 10.108 170.013 9.51705 170.257 9.00568C170.505 8.49148 170.848 8.09091 171.289 7.80398C171.732 7.5142 172.249 7.36932 172.84 7.36932C173.181 7.36932 173.517 7.42614 173.85 7.53977C174.182 7.65341 174.485 7.83807 174.757 8.09375C175.03 8.34659 175.248 8.68182 175.409 9.09943C175.571 9.51705 175.652 10.0312 175.652 10.642V11.0682H170.607V10.1989H174.63C174.63 9.82955 174.556 9.5 174.408 9.21023C174.263 8.92045 174.056 8.69176 173.786 8.52415C173.519 8.35653 173.203 8.27273 172.84 8.27273C172.439 8.27273 172.093 8.37216 171.8 8.57102C171.51 8.76705 171.287 9.02273 171.131 9.33807C170.975 9.65341 170.897 9.99148 170.897 10.3523V10.9318C170.897 11.4261 170.982 11.8452 171.152 12.1889C171.326 12.5298 171.566 12.7898 171.873 12.9688C172.179 13.1449 172.536 13.233 172.942 13.233C173.206 13.233 173.445 13.196 173.658 13.1222C173.874 13.0455 174.06 12.9318 174.216 12.7812C174.373 12.6278 174.493 12.4375 174.578 12.2102L175.55 12.483C175.448 12.8125 175.276 13.1023 175.034 13.3523C174.793 13.5994 174.495 13.7926 174.14 13.9318C173.784 14.0682 173.385 14.1364 172.942 14.1364ZM181.563 10.267V11.2045H177.949V10.267H181.563ZM178.188 7.45455V14H177.182V7.45455H178.188ZM182.33 7.45455V14H181.324V7.45455H182.33ZM183.276 8.39205V7.45455H188.594V8.39205H186.446V14H185.441V8.39205H183.276ZM192.38 14.1364C191.767 14.1364 191.238 13.9915 190.795 13.7017C190.352 13.4119 190.011 13.0128 189.772 12.5043C189.534 11.9957 189.414 11.4148 189.414 10.7614C189.414 10.0966 189.537 9.50994 189.781 9.00142C190.028 8.49006 190.372 8.09091 190.812 7.80398C191.255 7.5142 191.772 7.36932 192.363 7.36932C192.824 7.36932 193.238 7.45455 193.608 7.625C193.977 7.79545 194.279 8.03409 194.515 8.34091C194.751 8.64773 194.897 9.00568 194.954 9.41477H193.949C193.872 9.11648 193.701 8.85227 193.437 8.62216C193.176 8.3892 192.824 8.27273 192.38 8.27273C191.988 8.27273 191.645 8.375 191.349 8.57955C191.056 8.78125 190.828 9.06676 190.663 9.43608C190.501 9.80256 190.42 10.233 190.42 10.7273C190.42 11.233 190.5 11.6733 190.659 12.0483C190.821 12.4233 191.048 12.7145 191.341 12.9219C191.636 13.1293 191.983 13.233 192.38 13.233C192.642 13.233 192.879 13.1875 193.092 13.0966C193.305 13.0057 193.485 12.875 193.633 12.7045C193.781 12.5341 193.886 12.3295 193.949 12.0909H194.954C194.897 12.4773 194.757 12.8253 194.532 13.1349C194.311 13.4418 194.017 13.6861 193.65 13.8679C193.287 14.0469 192.863 14.1364 192.38 14.1364ZM195.909 8.39205V7.45455H201.227V8.39205H199.079V14H198.074V8.39205H195.909ZM202.694 14V7.45455H205.37C206.075 7.45455 206.634 7.61364 207.049 7.93182C207.464 8.25 207.671 8.67045 207.671 9.19318C207.671 9.59091 207.553 9.89915 207.317 10.1179C207.082 10.3338 206.779 10.4801 206.41 10.5568C206.651 10.5909 206.886 10.6761 207.113 10.8125C207.343 10.9489 207.533 11.1364 207.684 11.375C207.835 11.6108 207.91 11.9006 207.91 12.2443C207.91 12.5795 207.825 12.8793 207.654 13.1435C207.484 13.4077 207.239 13.6165 206.921 13.7699C206.603 13.9233 206.222 14 205.779 14H202.694ZM203.648 13.0795H205.779C206.126 13.0795 206.397 12.9972 206.593 12.8324C206.789 12.6676 206.887 12.4432 206.887 12.1591C206.887 11.821 206.789 11.5554 206.593 11.3622C206.397 11.1662 206.126 11.0682 205.779 11.0682H203.648V13.0795ZM203.648 10.1989H205.37C205.64 10.1989 205.871 10.1619 206.065 10.0881C206.258 10.0114 206.406 9.90341 206.508 9.7642C206.613 9.62216 206.665 9.45455 206.665 9.26136C206.665 8.9858 206.55 8.76989 206.32 8.61364C206.09 8.45455 205.773 8.375 205.37 8.375H203.648V10.1989ZM212.091 14.1364C211.5 14.1364 210.982 13.9957 210.536 13.7145C210.093 13.4332 209.746 13.0398 209.496 12.5341C209.249 12.0284 209.125 11.4375 209.125 10.7614C209.125 10.0795 209.249 9.48437 209.496 8.97585C209.746 8.46733 210.093 8.07244 210.536 7.79119C210.982 7.50994 211.5 7.36932 212.091 7.36932C212.682 7.36932 213.199 7.50994 213.642 7.79119C214.088 8.07244 214.435 8.46733 214.682 8.97585C214.932 9.48437 215.057 10.0795 215.057 10.7614C215.057 11.4375 214.932 12.0284 214.682 12.5341C214.435 13.0398 214.088 13.4332 213.642 13.7145C213.199 13.9957 212.682 14.1364 212.091 14.1364ZM212.091 13.233C212.54 13.233 212.909 13.1179 213.199 12.8878C213.489 12.6577 213.703 12.3551 213.843 11.9801C213.982 11.6051 214.051 11.1989 214.051 10.7614C214.051 10.3239 213.982 9.91619 213.843 9.53835C213.703 9.16051 213.489 8.85511 213.199 8.62216C212.909 8.3892 212.54 8.27273 212.091 8.27273C211.642 8.27273 211.273 8.3892 210.983 8.62216C210.694 8.85511 210.479 9.16051 210.34 9.53835C210.201 9.91619 210.131 10.3239 210.131 10.7614C210.131 11.1989 210.201 11.6051 210.34 11.9801C210.479 12.3551 210.694 12.6577 210.983 12.8878C211.273 13.1179 211.642 13.233 212.091 13.233ZM224.348 10.267V11.2045H220.734V10.267H224.348ZM220.973 7.45455V14H219.967V7.45455H220.973ZM225.115 7.45455V14H224.109V7.45455H225.115ZM229.696 14.1364C229.065 14.1364 228.521 13.9972 228.064 13.7188C227.609 13.4375 227.259 13.0455 227.011 12.5426C226.767 12.0369 226.645 11.4489 226.645 10.7784C226.645 10.108 226.767 9.51705 227.011 9.00568C227.259 8.49148 227.602 8.09091 228.043 7.80398C228.486 7.5142 229.003 7.36932 229.594 7.36932C229.935 7.36932 230.271 7.42614 230.604 7.53977C230.936 7.65341 231.239 7.83807 231.511 8.09375C231.784 8.34659 232.001 8.68182 232.163 9.09943C232.325 9.51705 232.406 10.0312 232.406 10.642V11.0682H227.361V10.1989H231.384C231.384 9.82955 231.31 9.5 231.162 9.21023C231.017 8.92045 230.81 8.69176 230.54 8.52415C230.273 8.35653 229.957 8.27273 229.594 8.27273C229.193 8.27273 228.847 8.37216 228.554 8.57102C228.264 8.76705 228.041 9.02273 227.885 9.33807C227.729 9.65341 227.651 9.99148 227.651 10.3523V10.9318C227.651 11.4261 227.736 11.8452 227.906 12.1889C228.08 12.5298 228.32 12.7898 228.626 12.9688C228.933 13.1449 229.29 13.233 229.696 13.233C229.96 13.233 230.199 13.196 230.412 13.1222C230.628 13.0455 230.814 12.9318 230.97 12.7812C231.126 12.6278 231.247 12.4375 231.332 12.2102L232.304 12.483C232.202 12.8125 232.03 13.1023 231.788 13.3523C231.547 13.5994 231.249 13.7926 230.893 13.9318C230.538 14.0682 230.139 14.1364 229.696 14.1364ZM233.237 15.875V13.0625H233.783C233.916 12.9233 234.031 12.7727 234.128 12.6108C234.224 12.4489 234.308 12.2571 234.379 12.0355C234.453 11.8111 234.516 11.5384 234.567 11.2173C234.618 10.8935 234.663 10.5028 234.703 10.0455L234.925 7.45455H239.084V13.0625H240.089V15.875H239.084V14H234.243V15.875H233.237ZM234.925 13.0625H238.078V8.39205H235.862L235.692 10.0455C235.621 10.7301 235.533 11.3281 235.428 11.8395C235.322 12.3509 235.155 12.7585 234.925 13.0625ZM241.424 14V7.45455H244.1C244.805 7.45455 245.365 7.61364 245.779 7.93182C246.194 8.25 246.402 8.67045 246.402 9.19318C246.402 9.59091 246.284 9.89915 246.048 10.1179C245.812 10.3338 245.51 10.4801 245.14 10.5568C245.382 10.5909 245.616 10.6761 245.843 10.8125C246.074 10.9489 246.264 11.1364 246.414 11.375C246.565 11.6108 246.64 11.9006 246.64 12.2443C246.64 12.5795 246.555 12.8793 246.385 13.1435C246.214 13.4077 245.97 13.6165 245.652 13.7699C245.333 13.9233 244.953 14 244.51 14H241.424ZM242.379 13.0795H244.51C244.856 13.0795 245.127 12.9972 245.324 12.8324C245.52 12.6676 245.618 12.4432 245.618 12.1591C245.618 11.821 245.52 11.5554 245.324 11.3622C245.127 11.1662 244.856 11.0682 244.51 11.0682H242.379V13.0795ZM242.379 10.1989H244.1C244.37 10.1989 244.602 10.1619 244.795 10.0881C244.988 10.0114 245.136 9.90341 245.238 9.7642C245.343 9.62216 245.396 9.45455 245.396 9.26136C245.396 8.9858 245.281 8.76989 245.051 8.61364C244.821 8.45455 244.504 8.375 244.1 8.375H242.379V10.1989ZM249.168 12.517L252.322 7.45455H253.481V14H252.475V8.9375L249.339 14H248.163V7.45455H249.168V12.517ZM254.914 14L257.573 10.6761L254.948 7.45455H256.141L258.323 10.25H258.868V7.45455H259.874V10.25H260.402L262.584 7.45455H263.777L261.169 10.6761L263.811 14H262.601L260.385 11.1875H259.874V14H258.868V11.1875H258.357L256.124 14H254.914ZM266.254 12.517L269.408 7.45455H270.567V14H269.561V8.9375L266.425 14H265.249V7.45455H266.254V12.517ZM275.988 12.6364L278.272 7.45455H279.227L276.397 14H275.579L272.801 7.45455H273.738L275.988 12.6364ZM273.414 7.45455V14H272.409V7.45455H273.414ZM278.562 14V7.45455H279.568V14H278.562ZM284.068 14.1364C283.477 14.1364 282.958 13.9957 282.512 13.7145C282.069 13.4332 281.723 13.0398 281.473 12.5341C281.225 12.0284 281.102 11.4375 281.102 10.7614C281.102 10.0795 281.225 9.48437 281.473 8.97585C281.723 8.46733 282.069 8.07244 282.512 7.79119C282.958 7.50994 283.477 7.36932 284.068 7.36932C284.659 7.36932 285.176 7.50994 285.619 7.79119C286.065 8.07244 286.412 8.46733 286.659 8.97585C286.909 9.48437 287.034 10.0795 287.034 10.7614C287.034 11.4375 286.909 12.0284 286.659 12.5341C286.412 13.0398 286.065 13.4332 285.619 13.7145C285.176 13.9957 284.659 14.1364 284.068 14.1364ZM284.068 13.233C284.517 13.233 284.886 13.1179 285.176 12.8878C285.466 12.6577 285.68 12.3551 285.819 11.9801C285.958 11.6051 286.028 11.1989 286.028 10.7614C286.028 10.3239 285.958 9.91619 285.819 9.53835C285.68 9.16051 285.466 8.85511 285.176 8.62216C284.886 8.3892 284.517 8.27273 284.068 8.27273C283.619 8.27273 283.25 8.3892 282.96 8.62216C282.67 8.85511 282.456 9.16051 282.316 9.53835C282.177 9.91619 282.108 10.3239 282.108 10.7614C282.108 11.1989 282.177 11.6051 282.316 11.9801C282.456 12.3551 282.67 12.6577 282.96 12.8878C283.25 13.1179 283.619 13.233 284.068 13.233ZM291.228 14.1364C290.614 14.1364 290.086 13.9915 289.643 13.7017C289.2 13.4119 288.859 13.0128 288.62 12.5043C288.381 11.9957 288.262 11.4148 288.262 10.7614C288.262 10.0966 288.384 9.50994 288.629 9.00142C288.876 8.49006 289.219 8.09091 289.66 7.80398C290.103 7.5142 290.62 7.36932 291.211 7.36932C291.671 7.36932 292.086 7.45455 292.455 7.625C292.825 7.79545 293.127 8.03409 293.363 8.34091C293.599 8.64773 293.745 9.00568 293.802 9.41477H292.796C292.719 9.11648 292.549 8.85227 292.285 8.62216C292.023 8.3892 291.671 8.27273 291.228 8.27273C290.836 8.27273 290.492 8.375 290.197 8.57955C289.904 8.78125 289.675 9.06676 289.511 9.43608C289.349 9.80256 289.268 10.233 289.268 10.7273C289.268 11.233 289.347 11.6733 289.506 12.0483C289.668 12.4233 289.896 12.7145 290.188 12.9219C290.484 13.1293 290.83 13.233 291.228 13.233C291.489 13.233 291.727 13.1875 291.94 13.0966C292.153 13.0057 292.333 12.875 292.481 12.7045C292.629 12.5341 292.734 12.3295 292.796 12.0909H293.802C293.745 12.4773 293.604 12.8253 293.38 13.1349C293.158 13.4418 292.864 13.6861 292.498 13.8679C292.134 14.0469 291.711 14.1364 291.228 14.1364ZM294.756 8.39205V7.45455H300.075V8.39205H297.927V14H296.921V8.39205H294.756ZM302.547 12.517L305.701 7.45455H306.86V14H305.854V8.9375L302.718 14H301.542V7.45455H302.547V12.517ZM157.926 31.517L161.08 26.4545H162.239V33H161.233V27.9375L158.097 33H156.92V26.4545H157.926V31.517ZM168.461 31.517L171.615 26.4545H172.774V33H171.768V27.9375L168.632 33H167.456V26.4545H168.461V31.517ZM178.996 29.267V30.2045H175.383V29.267H178.996ZM175.621 26.4545V33H174.616V26.4545H175.621ZM179.763 26.4545V33H178.758V26.4545H179.763ZM181.6 33V26.4545H184.276C184.981 26.4545 185.54 26.6136 185.955 26.9318C186.37 27.25 186.577 27.6705 186.577 28.1932C186.577 28.5909 186.46 28.8991 186.224 29.1179C185.988 29.3338 185.685 29.4801 185.316 29.5568C185.558 29.5909 185.792 29.6761 186.019 29.8125C186.249 29.9489 186.44 30.1364 186.59 30.375C186.741 30.6108 186.816 30.9006 186.816 31.2443C186.816 31.5795 186.731 31.8793 186.56 32.1435C186.39 32.4077 186.146 32.6165 185.827 32.7699C185.509 32.9233 185.129 33 184.685 33H181.6ZM182.555 32.0795H184.685C185.032 32.0795 185.303 31.9972 185.499 31.8324C185.695 31.6676 185.793 31.4432 185.793 31.1591C185.793 30.821 185.695 30.5554 185.499 30.3622C185.303 30.1662 185.032 30.0682 184.685 30.0682H182.555V32.0795ZM182.555 29.1989H184.276C184.546 29.1989 184.778 29.1619 184.971 29.0881C185.164 29.0114 185.312 28.9034 185.414 28.7642C185.519 28.6222 185.572 28.4545 185.572 28.2614C185.572 27.9858 185.457 27.7699 185.227 27.6136C184.996 27.4545 184.68 27.375 184.276 27.375H182.555V29.1989ZM191.083 33.1364C190.452 33.1364 189.908 32.9972 189.451 32.7188C188.996 32.4375 188.645 32.0455 188.398 31.5426C188.154 31.0369 188.032 30.4489 188.032 29.7784C188.032 29.108 188.154 28.517 188.398 28.0057C188.645 27.4915 188.989 27.0909 189.429 26.804C189.873 26.5142 190.39 26.3693 190.98 26.3693C191.321 26.3693 191.658 26.4261 191.99 26.5398C192.323 26.6534 192.625 26.8381 192.898 27.0938C193.171 27.3466 193.388 27.6818 193.55 28.0994C193.712 28.517 193.793 29.0312 193.793 29.642V30.0682H188.748V29.1989H192.77C192.77 28.8295 192.696 28.5 192.549 28.2102C192.404 27.9205 192.196 27.6918 191.926 27.5241C191.659 27.3565 191.344 27.2727 190.98 27.2727C190.58 27.2727 190.233 27.3722 189.941 27.571C189.651 27.767 189.428 28.0227 189.272 28.3381C189.115 28.6534 189.037 28.9915 189.037 29.3523V29.9318C189.037 30.4261 189.123 30.8452 189.293 31.1889C189.466 31.5298 189.706 31.7898 190.013 31.9688C190.32 32.1449 190.676 32.233 191.083 32.233C191.347 32.233 191.586 32.196 191.799 32.1222C192.015 32.0455 192.201 31.9318 192.357 31.7812C192.513 31.6278 192.634 31.4375 192.719 31.2102L193.691 31.483C193.588 31.8125 193.417 32.1023 193.175 32.3523C192.934 32.5994 192.635 32.7926 192.28 32.9318C191.925 33.0682 191.526 33.1364 191.083 33.1364ZM197.982 33.1364C197.368 33.1364 196.84 32.9915 196.397 32.7017C195.953 32.4119 195.613 32.0128 195.374 31.5043C195.135 30.9957 195.016 30.4148 195.016 29.7614C195.016 29.0966 195.138 28.5099 195.382 28.0014C195.63 27.4901 195.973 27.0909 196.414 26.804C196.857 26.5142 197.374 26.3693 197.965 26.3693C198.425 26.3693 198.84 26.4545 199.209 26.625C199.578 26.7955 199.881 27.0341 200.117 27.3409C200.353 27.6477 200.499 28.0057 200.556 28.4148H199.55C199.473 28.1165 199.303 27.8523 199.039 27.6222C198.777 27.3892 198.425 27.2727 197.982 27.2727C197.59 27.2727 197.246 27.375 196.951 27.5795C196.658 27.7812 196.429 28.0668 196.265 28.4361C196.103 28.8026 196.022 29.233 196.022 29.7273C196.022 30.233 196.101 30.6733 196.26 31.0483C196.422 31.4233 196.65 31.7145 196.942 31.9219C197.238 32.1293 197.584 32.233 197.982 32.233C198.243 32.233 198.48 32.1875 198.694 32.0966C198.907 32.0057 199.087 31.875 199.235 31.7045C199.382 31.5341 199.488 31.3295 199.55 31.0909H200.556C200.499 31.4773 200.358 31.8253 200.134 32.1349C199.912 32.4418 199.618 32.6861 199.252 32.8679C198.888 33.0469 198.465 33.1364 197.982 33.1364ZM201.51 27.392V26.4545H206.828V27.392H204.681V33H203.675V27.392H201.51ZM209.301 31.517L212.455 26.4545H213.614V33H212.608V27.9375L209.472 33H208.295V26.4545H209.301V31.517ZM220.603 26.4545V32.0625H221.524V35.1136H220.518V33H215.456V26.4545H216.461V32.0625H219.598V26.4545H220.603ZM224.078 31.517L227.232 26.4545H228.391V33H227.385V27.9375L224.249 33H223.073V26.4545H224.078V31.517ZM231.239 31.517L234.392 26.4545H235.551V33H234.545V27.9375L231.409 33H230.233V26.4545H231.239V31.517ZM233.727 24.2727H234.665C234.665 24.733 234.506 25.1094 234.188 25.402C233.869 25.6946 233.438 25.8409 232.892 25.8409C232.355 25.8409 231.928 25.6946 231.609 25.402C231.294 25.1094 231.136 24.733 231.136 24.2727H232.074C232.074 24.4943 232.135 24.6889 232.257 24.8565C232.382 25.0241 232.594 25.108 232.892 25.108C233.19 25.108 233.403 25.0241 233.531 24.8565C233.662 24.6889 233.727 24.4943 233.727 24.2727Z" fill="white"/>
<path d="M135 3V34.5" stroke="white" stroke-linecap="round"/>
</svg>
