<svg width="121" height="28" viewBox="0 0 121 28" fill="none" xmlns="http://www.w3.org/2000/svg">
<path d="M50.1479 3.22461L47.3237 11H46.1694L49.4214 2.46875H50.1655L50.1479 3.22461ZM52.5151 11L49.6851 3.22461L49.6675 2.46875H50.4116L53.6753 11H52.5151ZM52.3687 7.8418V8.76758H47.5757V7.8418H52.3687ZM58.0991 2.42188V11H57.0151V3.77539L54.8296 4.57227V3.59375L57.9292 2.42188H58.0991ZM67.5854 7.00977H65.4233L65.4116 6.10156H67.3745C67.6987 6.10156 67.9819 6.04688 68.2241 5.9375C68.4663 5.82812 68.6538 5.67188 68.7866 5.46875C68.9233 5.26172 68.9917 5.01562 68.9917 4.73047C68.9917 4.41797 68.9312 4.16406 68.8101 3.96875C68.6929 3.76953 68.5112 3.625 68.2651 3.53516C68.0229 3.44141 67.7144 3.39453 67.3394 3.39453H65.6753V11H64.5444V2.46875H67.3394C67.7769 2.46875 68.1675 2.51367 68.5112 2.60352C68.855 2.68945 69.146 2.82617 69.3843 3.01367C69.6265 3.19727 69.8101 3.43164 69.9351 3.7168C70.0601 4.00195 70.1226 4.34375 70.1226 4.74219C70.1226 5.09375 70.0327 5.41211 69.853 5.69727C69.6733 5.97852 69.4233 6.20898 69.103 6.38867C68.7866 6.56836 68.4155 6.68359 67.9897 6.73438L67.5854 7.00977ZM67.5327 11H64.978L65.6167 10.0801H67.5327C67.8921 10.0801 68.1968 10.0176 68.4468 9.89258C68.7007 9.76758 68.894 9.5918 69.0269 9.36523C69.1597 9.13477 69.2261 8.86328 69.2261 8.55078C69.2261 8.23438 69.1694 7.96094 69.0562 7.73047C68.9429 7.5 68.7651 7.32227 68.5229 7.19727C68.2808 7.07227 67.9683 7.00977 67.5854 7.00977H65.9741L65.9858 6.10156H68.189L68.4292 6.42969C68.8394 6.46484 69.187 6.58203 69.4722 6.78125C69.7573 6.97656 69.9741 7.22656 70.1226 7.53125C70.2749 7.83594 70.3511 8.17188 70.3511 8.53906C70.3511 9.07031 70.2339 9.51953 69.9995 9.88672C69.769 10.25 69.4429 10.5273 69.021 10.7188C68.5991 10.9062 68.103 11 67.5327 11ZM72.021 2.46875H74.8452C75.4858 2.46875 76.0269 2.56641 76.4683 2.76172C76.9136 2.95703 77.2515 3.24609 77.4819 3.62891C77.7163 4.00781 77.8335 4.47461 77.8335 5.0293C77.8335 5.41992 77.7534 5.77734 77.5933 6.10156C77.437 6.42188 77.2104 6.69531 76.9136 6.92188C76.6206 7.14453 76.269 7.31055 75.8589 7.41992L75.5425 7.54297H72.8882L72.8765 6.62305H74.8804C75.2866 6.62305 75.6245 6.55273 75.894 6.41211C76.1636 6.26758 76.3667 6.07422 76.5034 5.83203C76.6401 5.58984 76.7085 5.32227 76.7085 5.0293C76.7085 4.70117 76.644 4.41406 76.5151 4.16797C76.3862 3.92188 76.1831 3.73242 75.9058 3.59961C75.6323 3.46289 75.2788 3.39453 74.8452 3.39453H73.1519V11H72.021V2.46875ZM77.0073 11L74.9331 7.13281L76.1108 7.12695L78.2144 10.9297V11H77.0073ZM85.9839 6.46484V7.00391C85.9839 7.64453 85.9038 8.21875 85.7437 8.72656C85.5835 9.23438 85.353 9.66602 85.0522 10.0215C84.7515 10.377 84.3901 10.6484 83.9683 10.8359C83.5503 11.0234 83.0815 11.1172 82.562 11.1172C82.0581 11.1172 81.5952 11.0234 81.1733 10.8359C80.7554 10.6484 80.3921 10.377 80.0835 10.0215C79.7788 9.66602 79.5425 9.23438 79.3745 8.72656C79.2065 8.21875 79.1226 7.64453 79.1226 7.00391V6.46484C79.1226 5.82422 79.2046 5.25195 79.3687 4.74805C79.5366 4.24023 79.7729 3.80859 80.0776 3.45312C80.3823 3.09375 80.7437 2.82031 81.1616 2.63281C81.5835 2.44531 82.0464 2.35156 82.5503 2.35156C83.0698 2.35156 83.5386 2.44531 83.9565 2.63281C84.3784 2.82031 84.7397 3.09375 85.0405 3.45312C85.3452 3.80859 85.5776 4.24023 85.7378 4.74805C85.9019 5.25195 85.9839 5.82422 85.9839 6.46484ZM84.8647 7.00391V6.45312C84.8647 5.94531 84.812 5.49609 84.7065 5.10547C84.605 4.71484 84.4546 4.38672 84.2554 4.12109C84.0562 3.85547 83.812 3.6543 83.5229 3.51758C83.2378 3.38086 82.9136 3.3125 82.5503 3.3125C82.1987 3.3125 81.8804 3.38086 81.5952 3.51758C81.314 3.6543 81.0718 3.85547 80.8687 4.12109C80.6694 4.38672 80.5151 4.71484 80.4058 5.10547C80.2964 5.49609 80.2417 5.94531 80.2417 6.45312V7.00391C80.2417 7.51562 80.2964 7.96875 80.4058 8.36328C80.5151 8.75391 80.6714 9.08398 80.8745 9.35352C81.0815 9.61914 81.3257 9.82031 81.6069 9.95703C81.8921 10.0938 82.2104 10.1621 82.562 10.1621C82.9292 10.1621 83.2554 10.0938 83.5405 9.95703C83.8257 9.82031 84.0659 9.61914 84.2612 9.35352C84.4604 9.08398 84.6108 8.75391 84.7124 8.36328C84.814 7.96875 84.8647 7.51562 84.8647 7.00391ZM88.8081 2.46875V11H87.6772V2.46875H88.8081ZM93.9585 2.46875L90.4136 6.44727L88.4214 8.51562L88.2339 7.30859L89.7339 5.65625L92.5991 2.46875H93.9585ZM92.8687 11L89.7104 6.83984L90.3843 5.94336L94.2163 11H92.8687ZM100.632 10.0801V11H96.1147V10.0801H100.632ZM96.3433 2.46875V11H95.2124V2.46875H96.3433ZM100.035 6.13672V7.05664H96.1147V6.13672H100.035ZM100.574 2.46875V3.39453H96.1147V2.46875H100.574ZM102.033 2.46875H104.857C105.498 2.46875 106.039 2.56641 106.48 2.76172C106.925 2.95703 107.263 3.24609 107.494 3.62891C107.728 4.00781 107.845 4.47461 107.845 5.0293C107.845 5.41992 107.765 5.77734 107.605 6.10156C107.449 6.42188 107.222 6.69531 106.925 6.92188C106.632 7.14453 106.281 7.31055 105.871 7.41992L105.554 7.54297H102.9L102.888 6.62305H104.892C105.298 6.62305 105.636 6.55273 105.906 6.41211C106.175 6.26758 106.378 6.07422 106.515 5.83203C106.652 5.58984 106.72 5.32227 106.72 5.0293C106.72 4.70117 106.656 4.41406 106.527 4.16797C106.398 3.92188 106.195 3.73242 105.917 3.59961C105.644 3.46289 105.291 3.39453 104.857 3.39453H103.164V11H102.033V2.46875ZM107.019 11L104.945 7.13281L106.123 7.12695L108.226 10.9297V11H107.019ZM113.974 8.84375C113.974 8.64453 113.943 8.46875 113.88 8.31641C113.822 8.16016 113.716 8.01953 113.564 7.89453C113.416 7.76953 113.208 7.65039 112.943 7.53711C112.681 7.42383 112.349 7.30859 111.947 7.19141C111.525 7.06641 111.144 6.92773 110.804 6.77539C110.464 6.61914 110.173 6.44141 109.931 6.24219C109.689 6.04297 109.503 5.81445 109.375 5.55664C109.246 5.29883 109.181 5.00391 109.181 4.67188C109.181 4.33984 109.25 4.0332 109.386 3.75195C109.523 3.4707 109.718 3.22656 109.972 3.01953C110.23 2.80859 110.537 2.64453 110.892 2.52734C111.248 2.41016 111.644 2.35156 112.082 2.35156C112.722 2.35156 113.265 2.47461 113.71 2.7207C114.16 2.96289 114.501 3.28125 114.736 3.67578C114.97 4.06641 115.087 4.48438 115.087 4.92969H113.962C113.962 4.60938 113.894 4.32617 113.757 4.08008C113.621 3.83008 113.414 3.63477 113.136 3.49414C112.859 3.34961 112.507 3.27734 112.082 3.27734C111.679 3.27734 111.347 3.33789 111.085 3.45898C110.824 3.58008 110.628 3.74414 110.5 3.95117C110.375 4.1582 110.312 4.39453 110.312 4.66016C110.312 4.83984 110.349 5.00391 110.423 5.15234C110.501 5.29688 110.621 5.43164 110.781 5.55664C110.945 5.68164 111.152 5.79688 111.402 5.90234C111.656 6.00781 111.958 6.10938 112.31 6.20703C112.794 6.34375 113.212 6.49609 113.564 6.66406C113.916 6.83203 114.205 7.02148 114.431 7.23242C114.662 7.43945 114.832 7.67578 114.941 7.94141C115.054 8.20312 115.111 8.5 115.111 8.83203C115.111 9.17969 115.041 9.49414 114.9 9.77539C114.759 10.0566 114.558 10.2969 114.296 10.4961C114.035 10.6953 113.72 10.8496 113.353 10.959C112.99 11.0645 112.583 11.1172 112.134 11.1172C111.74 11.1172 111.351 11.0625 110.968 10.9531C110.589 10.8438 110.244 10.6797 109.931 10.4609C109.623 10.2422 109.375 9.97266 109.187 9.65234C109.003 9.32812 108.912 8.95312 108.912 8.52734H110.037C110.037 8.82031 110.093 9.07227 110.207 9.2832C110.32 9.49023 110.474 9.66211 110.669 9.79883C110.869 9.93555 111.093 10.0371 111.343 10.1035C111.597 10.166 111.861 10.1973 112.134 10.1973C112.529 10.1973 112.863 10.1426 113.136 10.0332C113.41 9.92383 113.617 9.76758 113.757 9.56445C113.902 9.36133 113.974 9.12109 113.974 8.84375ZM53.2944 20.752V23.875C53.189 24.0312 53.021 24.207 52.7905 24.4023C52.5601 24.5938 52.2417 24.7617 51.8354 24.9062C51.4331 25.0469 50.9136 25.1172 50.2769 25.1172C49.7573 25.1172 49.2788 25.0273 48.8413 24.8477C48.4077 24.6641 48.0308 24.3984 47.7104 24.0508C47.394 23.6992 47.1479 23.2734 46.9722 22.7734C46.8003 22.2695 46.7144 21.6992 46.7144 21.0625V20.4004C46.7144 19.7637 46.7886 19.1953 46.937 18.6953C47.0894 18.1953 47.312 17.7715 47.605 17.4238C47.8979 17.0723 48.2573 16.8066 48.6831 16.627C49.1089 16.4434 49.5972 16.3516 50.1479 16.3516C50.8003 16.3516 51.3452 16.4648 51.7827 16.6914C52.2241 16.9141 52.5679 17.2227 52.814 17.6172C53.064 18.0117 53.2241 18.4609 53.2944 18.9648H52.1636C52.1128 18.6562 52.0112 18.375 51.8589 18.1211C51.7104 17.8672 51.4976 17.6641 51.2202 17.5117C50.9429 17.3555 50.5854 17.2773 50.1479 17.2773C49.7534 17.2773 49.4116 17.3496 49.1226 17.4941C48.8335 17.6387 48.5952 17.8457 48.4077 18.1152C48.2202 18.3848 48.0796 18.7109 47.9858 19.0938C47.896 19.4766 47.8511 19.9082 47.8511 20.3887V21.0625C47.8511 21.5547 47.9077 21.9941 48.021 22.3809C48.1382 22.7676 48.3042 23.0977 48.519 23.3711C48.7339 23.6406 48.9897 23.8457 49.2866 23.9863C49.5874 24.127 49.9194 24.1973 50.2827 24.1973C50.6851 24.1973 51.0112 24.1641 51.2612 24.0977C51.5112 24.0273 51.7065 23.9453 51.8472 23.8516C51.9878 23.7539 52.0952 23.6621 52.1694 23.5762V21.666H50.1948V20.752H53.2944ZM55.1694 16.4688H57.9937C58.6343 16.4688 59.1753 16.5664 59.6167 16.7617C60.062 16.957 60.3999 17.2461 60.6304 17.6289C60.8647 18.0078 60.9819 18.4746 60.9819 19.0293C60.9819 19.4199 60.9019 19.7773 60.7417 20.1016C60.5854 20.4219 60.3589 20.6953 60.062 20.9219C59.769 21.1445 59.4175 21.3105 59.0073 21.4199L58.6909 21.543H56.0366L56.0249 20.623H58.0288C58.4351 20.623 58.7729 20.5527 59.0425 20.4121C59.312 20.2676 59.5151 20.0742 59.6519 19.832C59.7886 19.5898 59.8569 19.3223 59.8569 19.0293C59.8569 18.7012 59.7925 18.4141 59.6636 18.168C59.5347 17.9219 59.3315 17.7324 59.0542 17.5996C58.7808 17.4629 58.4272 17.3945 57.9937 17.3945H56.3003V25H55.1694V16.4688ZM60.1558 25L58.0815 21.1328L59.2593 21.127L61.3628 24.9297V25H60.1558ZM69.1323 20.4648V21.0039C69.1323 21.6445 69.0522 22.2188 68.8921 22.7266C68.7319 23.2344 68.5015 23.666 68.2007 24.0215C67.8999 24.377 67.5386 24.6484 67.1167 24.8359C66.6987 25.0234 66.23 25.1172 65.7104 25.1172C65.2065 25.1172 64.7437 25.0234 64.3218 24.8359C63.9038 24.6484 63.5405 24.377 63.2319 24.0215C62.9272 23.666 62.6909 23.2344 62.5229 22.7266C62.355 22.2188 62.271 21.6445 62.271 21.0039V20.4648C62.271 19.8242 62.353 19.252 62.5171 18.748C62.6851 18.2402 62.9214 17.8086 63.2261 17.4531C63.5308 17.0938 63.8921 16.8203 64.3101 16.6328C64.7319 16.4453 65.1948 16.3516 65.6987 16.3516C66.2183 16.3516 66.687 16.4453 67.105 16.6328C67.5269 16.8203 67.8882 17.0938 68.189 17.4531C68.4937 17.8086 68.7261 18.2402 68.8862 18.748C69.0503 19.252 69.1323 19.8242 69.1323 20.4648ZM68.0132 21.0039V20.4531C68.0132 19.9453 67.9604 19.4961 67.855 19.1055C67.7534 18.7148 67.603 18.3867 67.4038 18.1211C67.2046 17.8555 66.9604 17.6543 66.6714 17.5176C66.3862 17.3809 66.062 17.3125 65.6987 17.3125C65.3472 17.3125 65.0288 17.3809 64.7437 17.5176C64.4624 17.6543 64.2202 17.8555 64.0171 18.1211C63.8179 18.3867 63.6636 18.7148 63.5542 19.1055C63.4448 19.4961 63.3901 19.9453 63.3901 20.4531V21.0039C63.3901 21.5156 63.4448 21.9688 63.5542 22.3633C63.6636 22.7539 63.8198 23.084 64.0229 23.3535C64.23 23.6191 64.4741 23.8203 64.7554 23.957C65.0405 24.0938 65.3589 24.1621 65.7104 24.1621C66.0776 24.1621 66.4038 24.0938 66.689 23.957C66.9741 23.8203 67.2144 23.6191 67.4097 23.3535C67.6089 23.084 67.7593 22.7539 67.8608 22.3633C67.9624 21.9688 68.0132 21.5156 68.0132 21.0039ZM75.7065 16.4688H76.8315V22.2402C76.8315 22.8809 76.689 23.4141 76.4038 23.8398C76.1187 24.2656 75.7397 24.5859 75.2671 24.8008C74.7983 25.0117 74.2886 25.1172 73.7378 25.1172C73.1597 25.1172 72.6362 25.0117 72.1675 24.8008C71.7026 24.5859 71.3335 24.2656 71.0601 23.8398C70.7905 23.4141 70.6558 22.8809 70.6558 22.2402V16.4688H71.7749V22.2402C71.7749 22.6855 71.8569 23.0527 72.021 23.3418C72.1851 23.6309 72.4136 23.8457 72.7065 23.9863C73.0034 24.127 73.3472 24.1973 73.7378 24.1973C74.1323 24.1973 74.4761 24.127 74.769 23.9863C75.0659 23.8457 75.2964 23.6309 75.4604 23.3418C75.6245 23.0527 75.7065 22.6855 75.7065 22.2402V16.4688ZM81.7534 21.6543H79.4741V20.7344H81.7534C82.1948 20.7344 82.5522 20.6641 82.8257 20.5234C83.0991 20.3828 83.2983 20.1875 83.4233 19.9375C83.5522 19.6875 83.6167 19.4023 83.6167 19.082C83.6167 18.7891 83.5522 18.5137 83.4233 18.2559C83.2983 17.998 83.0991 17.791 82.8257 17.6348C82.5522 17.4746 82.1948 17.3945 81.7534 17.3945H79.7378V25H78.6069V16.4688H81.7534C82.3979 16.4688 82.9429 16.5801 83.3882 16.8027C83.8335 17.0254 84.1714 17.334 84.4019 17.7285C84.6323 18.1191 84.7476 18.5664 84.7476 19.0703C84.7476 19.6172 84.6323 20.084 84.4019 20.4707C84.1714 20.8574 83.8335 21.1523 83.3882 21.3555C82.9429 21.5547 82.3979 21.6543 81.7534 21.6543Z" fill="white"/>
<path fill-rule="evenodd" clip-rule="evenodd" d="M3.81104 19.7455H19.5064L22.8992 26.9431H26.0618L13.0873 0H13.0837L11.6439 3.06591L18.4178 17.436H4.89556L3.81104 19.7455Z" fill="white"/>
<path d="M18.4531 3.10079L19.8785 0.0722656L32.8431 26.9424H29.7207L18.4531 3.10079Z" fill="white"/>
<path fill-rule="evenodd" clip-rule="evenodd" d="M2.33161 22.1675L0 26.9999H3.12235L5.40619 22.1675H2.33161Z" fill="white"/>
</svg>
