<svg width="86" height="20" viewBox="0 0 86 20" fill="none" xmlns="http://www.w3.org/2000/svg">
<path d="M35.6428 2.47367L33.6355 8H32.8151L35.1264 1.93644H35.6553L35.6428 2.47367ZM37.3253 8L35.3138 2.47367L35.3013 1.93644H35.8302L38.1499 8H37.3253ZM37.2212 5.75532V6.41331H33.8146V5.75532H37.2212ZM41.2941 1.90313V8H40.5237V2.86513L38.9703 3.43151V2.73603L41.1733 1.90313H41.2941ZM48.0365 5.16395H46.4998L46.4914 4.51845H47.8865C48.117 4.51845 48.3183 4.47958 48.4904 4.40185C48.6625 4.32411 48.7958 4.21305 48.8902 4.06868C48.9874 3.92154 49.036 3.74663 49.036 3.54395C49.036 3.32184 48.9929 3.14138 48.9069 3.00256C48.8236 2.86097 48.6945 2.75824 48.5196 2.69439C48.3474 2.62776 48.1281 2.59444 47.8616 2.59444H46.6788V8H45.8751V1.93644H47.8616C48.1725 1.93644 48.4501 1.96837 48.6945 2.03223C48.9388 2.09331 49.1456 2.19048 49.315 2.32374C49.4871 2.45423 49.6176 2.62081 49.7064 2.82349C49.7953 3.02616 49.8397 3.26909 49.8397 3.55228C49.8397 3.80215 49.7759 4.02843 49.6481 4.2311C49.5204 4.431 49.3427 4.5948 49.1151 4.72251C48.8902 4.85023 48.6264 4.93213 48.3238 4.96822L48.0365 5.16395ZM47.999 8H46.1833L46.6372 7.34617H47.999C48.2544 7.34617 48.471 7.30175 48.6487 7.2129C48.8291 7.12406 48.9665 6.99912 49.0609 6.8381C49.1553 6.67429 49.2025 6.48133 49.2025 6.25923C49.2025 6.03434 49.1623 5.84 49.0818 5.67619C49.0013 5.51239 48.8749 5.38606 48.7028 5.29722C48.5307 5.20838 48.3086 5.16395 48.0365 5.16395H46.8912L46.8996 4.51845H48.4654L48.6362 4.75167C48.9277 4.77665 49.1748 4.85994 49.3774 5.00154C49.5801 5.14036 49.7342 5.31804 49.8397 5.5346C49.948 5.75115 50.0021 5.98992 50.0021 6.2509C50.0021 6.62848 49.9188 6.94776 49.7523 7.20874C49.5884 7.46694 49.3566 7.66406 49.0568 7.8001C48.7569 7.93337 48.4043 8 47.999 8ZM51.189 1.93644H53.1963C53.6516 1.93644 54.0362 2.00585 54.3499 2.14467C54.6664 2.28349 54.9066 2.48894 55.0704 2.76102C55.2369 3.03033 55.3202 3.3621 55.3202 3.75634C55.3202 4.03398 55.2633 4.28801 55.1495 4.51845C55.0384 4.74611 54.8774 4.94046 54.6664 5.10149C54.4582 5.25974 54.2083 5.37773 53.9168 5.45547L53.6919 5.54293H51.8054L51.797 4.8891H53.2213C53.51 4.8891 53.7502 4.83912 53.9418 4.73917C54.1333 4.63645 54.2777 4.49902 54.3749 4.32688C54.4721 4.15475 54.5206 3.96457 54.5206 3.75634C54.5206 3.52313 54.4748 3.31907 54.3832 3.14416C54.2916 2.96925 54.1472 2.83459 53.9501 2.7402C53.7558 2.64303 53.5045 2.59444 53.1963 2.59444H51.9928V8H51.189V1.93644ZM54.733 8L53.2588 5.25141L54.0959 5.24725L55.5909 7.95003V8H54.733ZM61.1131 4.77665V5.15979C61.1131 5.61511 61.0562 6.02324 60.9423 6.38416C60.8285 6.74509 60.6647 7.05188 60.4509 7.30452C60.2372 7.55717 59.9803 7.75013 59.6805 7.88339C59.3834 8.01666 59.0503 8.08329 58.681 8.08329C58.3229 8.08329 57.9939 8.01666 57.694 7.88339C57.3969 7.75013 57.1387 7.55717 56.9194 7.30452C56.7029 7.05188 56.5349 6.74509 56.4155 6.38416C56.2961 6.02324 56.2364 5.61511 56.2364 5.15979V4.77665C56.2364 4.32133 56.2947 3.9146 56.4113 3.55645C56.5307 3.19552 56.6987 2.88873 56.9152 2.63608C57.1318 2.38066 57.3886 2.18631 57.6857 2.05305C57.9855 1.91978 58.3145 1.85315 58.6727 1.85315C59.0419 1.85315 59.3751 1.91978 59.6722 2.05305C59.972 2.18631 60.2288 2.38066 60.4426 2.63608C60.6592 2.88873 60.8244 3.19552 60.9382 3.55645C61.0548 3.9146 61.1131 4.32133 61.1131 4.77665ZM60.3177 5.15979V4.76832C60.3177 4.4074 60.2802 4.08812 60.2052 3.81048C60.133 3.53285 60.0262 3.29963 59.8846 3.11084C59.743 2.92205 59.5694 2.77907 59.364 2.68189C59.1613 2.58472 58.9309 2.53614 58.6727 2.53614C58.4228 2.53614 58.1965 2.58472 57.9939 2.68189C57.794 2.77907 57.6218 2.92205 57.4775 3.11084C57.3359 3.29963 57.2262 3.53285 57.1485 3.81048C57.0707 4.08812 57.0319 4.4074 57.0319 4.76832V5.15979C57.0319 5.52349 57.0707 5.84555 57.1485 6.12596C57.2262 6.4036 57.3373 6.6382 57.4816 6.82977C57.6288 7.01856 57.8023 7.16154 58.0022 7.25871C58.2049 7.35589 58.4311 7.40447 58.681 7.40447C58.942 7.40447 59.1738 7.35589 59.3765 7.25871C59.5792 7.16154 59.7499 7.01856 59.8887 6.82977C60.0303 6.6382 60.1372 6.4036 60.2094 6.12596C60.2816 5.84555 60.3177 5.52349 60.3177 5.15979ZM63.1204 1.93644V8H62.3166V1.93644H63.1204ZM66.781 1.93644L64.2615 4.76416L62.8455 6.23424L62.7123 5.37635L63.7784 4.20195L65.8149 1.93644H66.781ZM66.0064 8L63.7617 5.04318L64.2407 4.40601L66.9643 8H66.0064ZM71.5244 7.34617V8H68.3136V7.34617H71.5244ZM68.476 1.93644V8H67.6722V1.93644H68.476ZM71.0996 4.54344V5.19727H68.3136V4.54344H71.0996ZM71.4828 1.93644V2.59444H68.3136V1.93644H71.4828ZM72.5197 1.93644H74.5271C74.9824 1.93644 75.3669 2.00585 75.6806 2.14467C75.9971 2.28349 76.2373 2.48894 76.4011 2.76102C76.5677 3.03033 76.651 3.3621 76.651 3.75634C76.651 4.03398 76.594 4.28801 76.4802 4.51845C76.3692 4.74611 76.2081 4.94046 75.9971 5.10149C75.7889 5.25974 75.539 5.37773 75.2475 5.45547L75.0226 5.54293H73.1361L73.1278 4.8891H74.552C74.8408 4.8891 75.0809 4.83912 75.2725 4.73917C75.4641 4.63645 75.6084 4.49902 75.7056 4.32688C75.8028 4.15475 75.8514 3.96457 75.8514 3.75634C75.8514 3.52313 75.8056 3.31907 75.7139 3.14416C75.6223 2.96925 75.478 2.83459 75.2808 2.7402C75.0865 2.64303 74.8352 2.59444 74.5271 2.59444H73.3235V8H72.5197V1.93644ZM76.0638 8L74.5895 5.25141L75.4266 5.24725L76.9217 7.95003V8H76.0638ZM81.0071 6.46745C81.0071 6.32586 80.9848 6.20092 80.9404 6.09264C80.8988 5.98159 80.8238 5.88164 80.7155 5.7928C80.61 5.70396 80.4629 5.61928 80.2741 5.53876C80.0881 5.45825 79.8521 5.37635 79.5661 5.29305C79.2663 5.20421 78.9956 5.10565 78.754 4.99737C78.5125 4.88632 78.3057 4.75999 78.1335 4.6184C77.9614 4.47681 77.8295 4.31439 77.7379 4.13115C77.6463 3.94791 77.6005 3.7383 77.6005 3.50231C77.6005 3.26632 77.6491 3.04837 77.7462 2.84848C77.8434 2.64858 77.9822 2.47506 78.1627 2.32791C78.3459 2.17799 78.5639 2.06138 78.8165 1.97809C79.0692 1.8948 79.351 1.85315 79.6619 1.85315C80.1172 1.85315 80.5032 1.94061 80.8197 2.11552C81.1389 2.28765 81.3819 2.51392 81.5484 2.79434C81.715 3.07197 81.7983 3.36904 81.7983 3.68555H80.9987C80.9987 3.45788 80.9501 3.2566 80.853 3.08169C80.7558 2.904 80.6087 2.76518 80.4115 2.66524C80.2144 2.56251 79.9645 2.51115 79.6619 2.51115C79.376 2.51115 79.14 2.55418 78.9539 2.64025C78.7679 2.72632 78.6291 2.84292 78.5375 2.99007C78.4487 3.13722 78.4042 3.30519 78.4042 3.49398C78.4042 3.62169 78.4306 3.7383 78.4834 3.8438C78.5389 3.94652 78.6236 4.04231 78.7374 4.13115C78.854 4.21999 79.0011 4.3019 79.1788 4.37686C79.3593 4.45182 79.5745 4.524 79.8243 4.59341C80.1686 4.69059 80.4657 4.79886 80.7155 4.91825C80.9654 5.03763 81.1709 5.17228 81.3319 5.32221C81.4957 5.46935 81.6165 5.63732 81.6942 5.82611C81.7747 6.01213 81.815 6.22313 81.815 6.45912C81.815 6.70622 81.765 6.92972 81.6651 7.12961C81.5651 7.32951 81.4221 7.50026 81.2361 7.64185C81.0501 7.78344 80.8266 7.89311 80.5656 7.97085C80.3074 8.04581 80.0187 8.08329 79.6994 8.08329C79.419 8.08329 79.1427 8.04442 78.8707 7.96668C78.6013 7.88895 78.3556 7.77234 78.1335 7.61686C77.9142 7.46139 77.7379 7.26982 77.6046 7.04216C77.4742 6.81172 77.4089 6.54519 77.4089 6.24257H78.2085C78.2085 6.45079 78.2488 6.62987 78.3293 6.77979C78.4098 6.92694 78.5194 7.0491 78.6583 7.14627C78.7999 7.24344 78.9595 7.31563 79.1372 7.36283C79.3176 7.40725 79.5051 7.42946 79.6994 7.42946C79.9798 7.42946 80.2172 7.39059 80.4115 7.31285C80.6059 7.23511 80.753 7.12406 80.853 6.97969C80.9557 6.83532 81.0071 6.66457 81.0071 6.46745ZM37.8792 14.9807V17.2004C37.8042 17.3115 37.6848 17.4364 37.521 17.5752C37.3572 17.7113 37.1309 17.8306 36.8422 17.9334C36.5562 18.0333 36.187 18.0833 35.7344 18.0833C35.3652 18.0833 35.0251 18.0194 34.7141 17.8917C34.406 17.7612 34.138 17.5724 33.9104 17.3253C33.6855 17.0755 33.5106 16.7729 33.3856 16.4175C33.2635 16.0593 33.2024 15.654 33.2024 15.2014V14.7308C33.2024 14.2783 33.2552 13.8743 33.3607 13.519C33.4689 13.1636 33.6272 12.8624 33.8354 12.6153C34.0436 12.3654 34.2991 12.1766 34.6017 12.0489C34.9043 11.9184 35.2514 11.8532 35.6428 11.8532C36.1065 11.8532 36.4938 11.9337 36.8047 12.0947C37.1185 12.2529 37.3628 12.4723 37.5377 12.7527C37.7154 13.0331 37.8292 13.3524 37.8792 13.7105H37.0754C37.0393 13.4912 36.9671 13.2913 36.8589 13.1108C36.7534 12.9304 36.6021 12.786 36.4049 12.6777C36.2078 12.5667 35.9538 12.5111 35.6428 12.5111C35.3624 12.5111 35.1195 12.5625 34.914 12.6652C34.7086 12.768 34.5392 12.9151 34.406 13.1067C34.2727 13.2982 34.1727 13.5301 34.1061 13.8022C34.0423 14.0742 34.0103 14.381 34.0103 14.7225V15.2014C34.0103 15.5513 34.0506 15.8636 34.1311 16.1385C34.2144 16.4133 34.3324 16.6479 34.4851 16.8423C34.6378 17.0338 34.8196 17.1796 35.0306 17.2795C35.2444 17.3795 35.4804 17.4295 35.7386 17.4295C36.0246 17.4295 36.2564 17.4059 36.4341 17.3587C36.6118 17.3087 36.7506 17.2504 36.8505 17.1838C36.9505 17.1143 37.0268 17.0491 37.0796 16.988V15.6304H35.6761V14.9807H37.8792ZM39.2118 11.9364H41.2191C41.6745 11.9364 42.059 12.0059 42.3727 12.1447C42.6892 12.2835 42.9294 12.4889 43.0932 12.761C43.2598 13.0303 43.343 13.3621 43.343 13.7563C43.343 14.034 43.2861 14.288 43.1723 14.5185C43.0612 14.7461 42.9002 14.9405 42.6892 15.1015C42.481 15.2597 42.2311 15.3777 41.9396 15.4555L41.7147 15.5429H39.8282L39.8198 14.8891H41.2441C41.5329 14.8891 41.773 14.8391 41.9646 14.7392C42.1561 14.6364 42.3005 14.499 42.3977 14.3269C42.4949 14.1547 42.5435 13.9646 42.5435 13.7563C42.5435 13.5231 42.4976 13.3191 42.406 13.1442C42.3144 12.9692 42.17 12.8346 41.9729 12.7402C41.7786 12.643 41.5273 12.5944 41.2191 12.5944H40.0156V18H39.2118V11.9364ZM42.7558 18L41.2816 15.2514L42.1187 15.2472L43.6137 17.95V18H42.7558ZM49.1359 14.7767V15.1598C49.1359 15.6151 49.079 16.0232 48.9652 16.3842C48.8513 16.7451 48.6875 17.0519 48.4737 17.3045C48.26 17.5572 48.0032 17.7501 47.7033 17.8834C47.4062 18.0167 47.0731 18.0833 46.7038 18.0833C46.3457 18.0833 46.0167 18.0167 45.7168 17.8834C45.4198 17.7501 45.1616 17.5572 44.9422 17.3045C44.7257 17.0519 44.5577 16.7451 44.4383 16.3842C44.3189 16.0232 44.2592 15.6151 44.2592 15.1598V14.7767C44.2592 14.3213 44.3175 13.9146 44.4341 13.5564C44.5535 13.1955 44.7215 12.8887 44.9381 12.6361C45.1546 12.3807 45.4114 12.1863 45.7085 12.053C46.0083 11.9198 46.3373 11.8532 46.6955 11.8532C47.0647 11.8532 47.3979 11.9198 47.695 12.053C47.9948 12.1863 48.2516 12.3807 48.4654 12.6361C48.682 12.8887 48.8472 13.1955 48.961 13.5564C49.0776 13.9146 49.1359 14.3213 49.1359 14.7767ZM48.3405 15.1598V14.7683C48.3405 14.4074 48.303 14.0881 48.228 13.8105C48.1559 13.5328 48.049 13.2996 47.9074 13.1108C47.7658 12.922 47.5923 12.7791 47.3868 12.6819C47.1841 12.5847 46.9537 12.5361 46.6955 12.5361C46.4456 12.5361 46.2193 12.5847 46.0167 12.6819C45.8168 12.7791 45.6446 12.922 45.5003 13.1108C45.3587 13.2996 45.249 13.5328 45.1713 13.8105C45.0935 14.0881 45.0547 14.4074 45.0547 14.7683V15.1598C45.0547 15.5235 45.0935 15.8455 45.1713 16.126C45.249 16.4036 45.3601 16.6382 45.5044 16.8298C45.6516 17.0186 45.8251 17.1615 46.025 17.2587C46.2277 17.3559 46.4539 17.4045 46.7038 17.4045C46.9648 17.4045 47.1966 17.3559 47.3993 17.2587C47.602 17.1615 47.7727 17.0186 47.9115 16.8298C48.0531 16.6382 48.16 16.4036 48.2322 16.126C48.3044 15.8455 48.3405 15.5235 48.3405 15.1598ZM53.8085 11.9364H54.6081V16.0385C54.6081 16.4938 54.5068 16.8728 54.3041 17.1754C54.1014 17.478 53.8321 17.7057 53.4962 17.8584C53.163 18.0083 52.8007 18.0833 52.4092 18.0833C51.9983 18.0833 51.6263 18.0083 51.2931 17.8584C50.9627 17.7057 50.7004 17.478 50.506 17.1754C50.3145 16.8728 50.2187 16.4938 50.2187 16.0385V11.9364H51.0141V16.0385C51.0141 16.355 51.0724 16.616 51.189 16.8214C51.3056 17.0269 51.468 17.1796 51.6763 17.2795C51.8873 17.3795 52.1316 17.4295 52.4092 17.4295C52.6896 17.4295 52.934 17.3795 53.1422 17.2795C53.3532 17.1796 53.517 17.0269 53.6336 16.8214C53.7502 16.616 53.8085 16.355 53.8085 16.0385V11.9364ZM58.1063 15.6221H56.4863V14.9682H58.1063C58.42 14.9682 58.6741 14.9182 58.8684 14.8183C59.0628 14.7183 59.2044 14.5795 59.2932 14.4018C59.3848 14.2242 59.4306 14.0215 59.4306 13.7938C59.4306 13.5856 59.3848 13.3899 59.2932 13.2066C59.2044 13.0234 59.0628 12.8762 58.8684 12.7652C58.6741 12.6514 58.42 12.5944 58.1063 12.5944H56.6737V18H55.87V11.9364H58.1063C58.5644 11.9364 58.9517 12.0156 59.2682 12.1738C59.5847 12.3321 59.8249 12.5514 59.9887 12.8318C60.1525 13.1095 60.2344 13.4273 60.2344 13.7855C60.2344 14.1742 60.1525 14.506 59.9887 14.7808C59.8249 15.0557 59.5847 15.2653 59.2682 15.4097C58.9517 15.5513 58.5644 15.6221 58.1063 15.6221Z" fill="white"/>
<path d="M18.5234 19.1494H16.2754L13.8643 14.0342H2.70898L3.47949 12.3926H13.0908L8.27539 2.17871L9.2998 0H9.30176L18.5234 19.1494Z" fill="white"/>
<path d="M13.1152 2.20378L14.1283 0.0512695L23.3429 19.1491H21.1237L13.1152 2.20378Z" fill="white"/>
<path d="M2.21875 19.1899H0L1.65723 15.7554H3.8418L2.21875 19.1899Z" fill="white"/>
</svg>
