<svg width="181" height="38" viewBox="0 0 181 38" fill="none" xmlns="http://www.w3.org/2000/svg">
<path d="M22.9148 14H21.8068L25.0114 5.27273H26.1023L29.3068 14H28.1989L25.5909 6.65341H25.5227L22.9148 14ZM23.3239 10.5909H27.7898V11.5284H23.3239V10.5909ZM34.5696 7.45455V8.39205H31.5355V14H30.5298V7.45455H34.5696ZM38.4421 14.1364C37.8114 14.1364 37.2674 13.9972 36.81 13.7188C36.3555 13.4375 36.0046 13.0455 35.7575 12.5426C35.5131 12.0369 35.391 11.4489 35.391 10.7784C35.391 10.108 35.5131 9.51705 35.7575 9.00568C36.0046 8.49148 36.3484 8.09091 36.7887 7.80398C37.2319 7.5142 37.7489 7.36932 38.3398 7.36932C38.6808 7.36932 39.0174 7.42614 39.3498 7.53977C39.6822 7.65341 39.9847 7.83807 40.2575 8.09375C40.5302 8.34659 40.7475 8.68182 40.9094 9.09943C41.0714 9.51705 41.1523 10.0312 41.1523 10.642V11.0682H36.1069V10.1989H40.1296C40.1296 9.82955 40.0558 9.5 39.908 9.21023C39.7631 8.92045 39.5558 8.69176 39.2859 8.52415C39.0188 8.35653 38.7035 8.27273 38.3398 8.27273C37.9393 8.27273 37.5927 8.37216 37.3001 8.57102C37.0103 8.76705 36.7873 9.02273 36.631 9.33807C36.4748 9.65341 36.3967 9.99148 36.3967 10.3523V10.9318C36.3967 11.4261 36.4819 11.8452 36.6523 12.1889C36.8256 12.5298 37.0657 12.7898 37.3725 12.9688C37.6793 13.1449 38.0359 13.233 38.4421 13.233C38.7063 13.233 38.945 13.196 39.158 13.1222C39.3739 13.0455 39.56 12.9318 39.7163 12.7812C39.8725 12.6278 39.9933 12.4375 40.0785 12.2102L41.0501 12.483C40.9478 12.8125 40.7759 13.1023 40.5344 13.3523C40.293 13.5994 39.9947 13.7926 39.6396 13.9318C39.2844 14.0682 38.8853 14.1364 38.4421 14.1364ZM47.0629 10.267V11.2045H43.4492V10.267H47.0629ZM43.6879 7.45455V14H42.6822V7.45455H43.6879ZM47.8299 7.45455V14H46.8242V7.45455H47.8299ZM48.7759 8.39205V7.45455H54.0941V8.39205H51.9464V14H50.9407V8.39205H48.7759ZM57.8803 14.1364C57.2667 14.1364 56.7383 13.9915 56.2951 13.7017C55.8519 13.4119 55.511 13.0128 55.2724 12.5043C55.0337 11.9957 54.9144 11.4148 54.9144 10.7614C54.9144 10.0966 55.0366 9.50994 55.2809 9.00142C55.5281 8.49006 55.8718 8.09091 56.3121 7.80398C56.7553 7.5142 57.2724 7.36932 57.8633 7.36932C58.3235 7.36932 58.7383 7.45455 59.1076 7.625C59.4769 7.79545 59.7795 8.03409 60.0153 8.34091C60.2511 8.64773 60.3974 9.00568 60.4542 9.41477H59.4485C59.3718 9.11648 59.2013 8.85227 58.9371 8.62216C58.6758 8.3892 58.3235 8.27273 57.8803 8.27273C57.4883 8.27273 57.1445 8.375 56.8491 8.57955C56.5565 8.78125 56.3278 9.06676 56.163 9.43608C56.0011 9.80256 55.9201 10.233 55.9201 10.7273C55.9201 11.233 55.9996 11.6733 56.1587 12.0483C56.3207 12.4233 56.5479 12.7145 56.8406 12.9219C57.136 13.1293 57.4826 13.233 57.8803 13.233C58.1417 13.233 58.3789 13.1875 58.592 13.0966C58.805 13.0057 58.9854 12.875 59.1332 12.7045C59.2809 12.5341 59.386 12.3295 59.4485 12.0909H60.4542C60.3974 12.4773 60.2567 12.8253 60.0323 13.1349C59.8107 13.4418 59.5167 13.6861 59.1502 13.8679C58.7866 14.0469 58.3633 14.1364 57.8803 14.1364ZM61.4087 8.39205V7.45455H66.7269V8.39205H64.5792V14H63.5735V8.39205H61.4087ZM68.1939 14V7.45455H70.87C71.5746 7.45455 72.1342 7.61364 72.549 7.93182C72.9638 8.25 73.1712 8.67045 73.1712 9.19318C73.1712 9.59091 73.0533 9.89915 72.8175 10.1179C72.5817 10.3338 72.2791 10.4801 71.9098 10.5568C72.1513 10.5909 72.3857 10.6761 72.6129 10.8125C72.843 10.9489 73.0334 11.1364 73.1839 11.375C73.3345 11.6108 73.4098 11.9006 73.4098 12.2443C73.4098 12.5795 73.3246 12.8793 73.1541 13.1435C72.9837 13.4077 72.7393 13.6165 72.4212 13.7699C72.103 13.9233 71.7223 14 71.2791 14H68.1939ZM69.1484 13.0795H71.2791C71.6257 13.0795 71.897 12.9972 72.093 12.8324C72.2891 12.6676 72.3871 12.4432 72.3871 12.1591C72.3871 11.821 72.2891 11.5554 72.093 11.3622C71.897 11.1662 71.6257 11.0682 71.2791 11.0682H69.1484V13.0795ZM69.1484 10.1989H70.87C71.1399 10.1989 71.3714 10.1619 71.5646 10.0881C71.7578 10.0114 71.9055 9.90341 72.0078 9.7642C72.1129 9.62216 72.1655 9.45455 72.1655 9.26136C72.1655 8.9858 72.0504 8.76989 71.8203 8.61364C71.5902 8.45455 71.2734 8.375 70.87 8.375H69.1484V10.1989ZM77.5913 14.1364C77.0004 14.1364 76.4819 13.9957 76.0359 13.7145C75.5927 13.4332 75.2461 13.0398 74.9961 12.5341C74.7489 12.0284 74.6254 11.4375 74.6254 10.7614C74.6254 10.0795 74.7489 9.48437 74.9961 8.97585C75.2461 8.46733 75.5927 8.07244 76.0359 7.79119C76.4819 7.50994 77.0004 7.36932 77.5913 7.36932C78.1822 7.36932 78.6992 7.50994 79.1424 7.79119C79.5884 8.07244 79.935 8.46733 80.1822 8.97585C80.4322 9.48437 80.5572 10.0795 80.5572 10.7614C80.5572 11.4375 80.4322 12.0284 80.1822 12.5341C79.935 13.0398 79.5884 13.4332 79.1424 13.7145C78.6992 13.9957 78.1822 14.1364 77.5913 14.1364ZM77.5913 13.233C78.0401 13.233 78.4094 13.1179 78.6992 12.8878C78.989 12.6577 79.2035 12.3551 79.3427 11.9801C79.4819 11.6051 79.5515 11.1989 79.5515 10.7614C79.5515 10.3239 79.4819 9.91619 79.3427 9.53835C79.2035 9.16051 78.989 8.85511 78.6992 8.62216C78.4094 8.3892 78.0401 8.27273 77.5913 8.27273C77.1424 8.27273 76.7731 8.3892 76.4833 8.62216C76.1935 8.85511 75.979 9.16051 75.8398 9.53835C75.7006 9.91619 75.631 10.3239 75.631 10.7614C75.631 11.1989 75.7006 11.6051 75.8398 11.9801C75.979 12.3551 76.1935 12.6577 76.4833 12.8878C76.7731 13.1179 77.1424 13.233 77.5913 13.233ZM89.848 10.267V11.2045H86.2344V10.267H89.848ZM86.473 7.45455V14H85.4673V7.45455H86.473ZM90.6151 7.45455V14H89.6094V7.45455H90.6151ZM95.196 14.1364C94.5653 14.1364 94.0213 13.9972 93.5639 13.7188C93.1094 13.4375 92.7585 13.0455 92.5114 12.5426C92.267 12.0369 92.1449 11.4489 92.1449 10.7784C92.1449 10.108 92.267 9.51705 92.5114 9.00568C92.7585 8.49148 93.1023 8.09091 93.5426 7.80398C93.9858 7.5142 94.5028 7.36932 95.0938 7.36932C95.4347 7.36932 95.7713 7.42614 96.1037 7.53977C96.4361 7.65341 96.7386 7.83807 97.0114 8.09375C97.2841 8.34659 97.5014 8.68182 97.6634 9.09943C97.8253 9.51705 97.9062 10.0312 97.9062 10.642V11.0682H92.8608V10.1989H96.8835C96.8835 9.82955 96.8097 9.5 96.6619 9.21023C96.517 8.92045 96.3097 8.69176 96.0398 8.52415C95.7727 8.35653 95.4574 8.27273 95.0938 8.27273C94.6932 8.27273 94.3466 8.37216 94.054 8.57102C93.7642 8.76705 93.5412 9.02273 93.3849 9.33807C93.2287 9.65341 93.1506 9.99148 93.1506 10.3523V10.9318C93.1506 11.4261 93.2358 11.8452 93.4062 12.1889C93.5795 12.5298 93.8196 12.7898 94.1264 12.9688C94.4332 13.1449 94.7898 13.233 95.196 13.233C95.4602 13.233 95.6989 13.196 95.9119 13.1222C96.1278 13.0455 96.3139 12.9318 96.4702 12.7812C96.6264 12.6278 96.7472 12.4375 96.8324 12.2102L97.804 12.483C97.7017 12.8125 97.5298 13.1023 97.2884 13.3523C97.0469 13.5994 96.7486 13.7926 96.3935 13.9318C96.0384 14.0682 95.6392 14.1364 95.196 14.1364ZM98.7372 15.875V13.0625H99.2827C99.4162 12.9233 99.5313 12.7727 99.6278 12.6108C99.7244 12.4489 99.8082 12.2571 99.8793 12.0355C99.9531 11.8111 100.016 11.5384 100.067 11.2173C100.118 10.8935 100.163 10.5028 100.203 10.0455L100.425 7.45455H104.584V13.0625H105.589V15.875H104.584V14H99.7429V15.875H98.7372ZM100.425 13.0625H103.578V8.39205H101.362L101.192 10.0455C101.121 10.7301 101.033 11.3281 100.928 11.8395C100.822 12.3509 100.655 12.7585 100.425 13.0625ZM106.924 14V7.45455H109.6C110.305 7.45455 110.865 7.61364 111.279 7.93182C111.694 8.25 111.902 8.67045 111.902 9.19318C111.902 9.59091 111.784 9.89915 111.548 10.1179C111.312 10.3338 111.01 10.4801 110.64 10.5568C110.882 10.5909 111.116 10.6761 111.343 10.8125C111.574 10.9489 111.764 11.1364 111.914 11.375C112.065 11.6108 112.14 11.9006 112.14 12.2443C112.14 12.5795 112.055 12.8793 111.885 13.1435C111.714 13.4077 111.47 13.6165 111.152 13.7699C110.833 13.9233 110.453 14 110.01 14H106.924ZM107.879 13.0795H110.01C110.356 13.0795 110.627 12.9972 110.824 12.8324C111.02 12.6676 111.118 12.4432 111.118 12.1591C111.118 11.821 111.02 11.5554 110.824 11.3622C110.627 11.1662 110.356 11.0682 110.01 11.0682H107.879V13.0795ZM107.879 10.1989H109.6C109.87 10.1989 110.102 10.1619 110.295 10.0881C110.488 10.0114 110.636 9.90341 110.738 9.7642C110.843 9.62216 110.896 9.45455 110.896 9.26136C110.896 8.9858 110.781 8.76989 110.551 8.61364C110.321 8.45455 110.004 8.375 109.6 8.375H107.879V10.1989ZM114.668 12.517L117.822 7.45455H118.981V14H117.975V8.9375L114.839 14H113.663V7.45455H114.668V12.517ZM120.414 14L123.073 10.6761L120.448 7.45455H121.641L123.823 10.25H124.368V7.45455H125.374V10.25H125.902L128.084 7.45455H129.277L126.669 10.6761L129.311 14H128.101L125.885 11.1875H125.374V14H124.368V11.1875H123.857L121.624 14H120.414ZM131.754 12.517L134.908 7.45455H136.067V14H135.061V8.9375L131.925 14H130.749V7.45455H131.754V12.517ZM141.488 12.6364L143.772 7.45455H144.727L141.897 14H141.079L138.301 7.45455H139.238L141.488 12.6364ZM138.914 7.45455V14H137.909V7.45455H138.914ZM144.062 14V7.45455H145.068V14H144.062ZM149.568 14.1364C148.977 14.1364 148.458 13.9957 148.012 13.7145C147.569 13.4332 147.223 13.0398 146.973 12.5341C146.725 12.0284 146.602 11.4375 146.602 10.7614C146.602 10.0795 146.725 9.48437 146.973 8.97585C147.223 8.46733 147.569 8.07244 148.012 7.79119C148.458 7.50994 148.977 7.36932 149.568 7.36932C150.159 7.36932 150.676 7.50994 151.119 7.79119C151.565 8.07244 151.912 8.46733 152.159 8.97585C152.409 9.48437 152.534 10.0795 152.534 10.7614C152.534 11.4375 152.409 12.0284 152.159 12.5341C151.912 13.0398 151.565 13.4332 151.119 13.7145C150.676 13.9957 150.159 14.1364 149.568 14.1364ZM149.568 13.233C150.017 13.233 150.386 13.1179 150.676 12.8878C150.966 12.6577 151.18 12.3551 151.319 11.9801C151.458 11.6051 151.528 11.1989 151.528 10.7614C151.528 10.3239 151.458 9.91619 151.319 9.53835C151.18 9.16051 150.966 8.85511 150.676 8.62216C150.386 8.3892 150.017 8.27273 149.568 8.27273C149.119 8.27273 148.75 8.3892 148.46 8.62216C148.17 8.85511 147.956 9.16051 147.816 9.53835C147.677 9.91619 147.608 10.3239 147.608 10.7614C147.608 11.1989 147.677 11.6051 147.816 11.9801C147.956 12.3551 148.17 12.6577 148.46 12.8878C148.75 13.1179 149.119 13.233 149.568 13.233ZM156.728 14.1364C156.114 14.1364 155.586 13.9915 155.143 13.7017C154.7 13.4119 154.359 13.0128 154.12 12.5043C153.881 11.9957 153.762 11.4148 153.762 10.7614C153.762 10.0966 153.884 9.50994 154.129 9.00142C154.376 8.49006 154.719 8.09091 155.16 7.80398C155.603 7.5142 156.12 7.36932 156.711 7.36932C157.171 7.36932 157.586 7.45455 157.955 7.625C158.325 7.79545 158.627 8.03409 158.863 8.34091C159.099 8.64773 159.245 9.00568 159.302 9.41477H158.296C158.219 9.11648 158.049 8.85227 157.785 8.62216C157.523 8.3892 157.171 8.27273 156.728 8.27273C156.336 8.27273 155.992 8.375 155.697 8.57955C155.404 8.78125 155.175 9.06676 155.011 9.43608C154.849 9.80256 154.768 10.233 154.768 10.7273C154.768 11.233 154.847 11.6733 155.006 12.0483C155.168 12.4233 155.396 12.7145 155.688 12.9219C155.984 13.1293 156.33 13.233 156.728 13.233C156.989 13.233 157.227 13.1875 157.44 13.0966C157.653 13.0057 157.833 12.875 157.981 12.7045C158.129 12.5341 158.234 12.3295 158.296 12.0909H159.302C159.245 12.4773 159.104 12.8253 158.88 13.1349C158.658 13.4418 158.364 13.6861 157.998 13.8679C157.634 14.0469 157.211 14.1364 156.728 14.1364ZM160.256 8.39205V7.45455H165.575V8.39205H163.427V14H162.421V8.39205H160.256ZM168.047 12.517L171.201 7.45455H172.36V14H171.354V8.9375L168.218 14H167.042V7.45455H168.047V12.517ZM23.4261 31.517L26.5795 26.4545H27.7386V33H26.733V27.9375L23.5966 33H22.4205V26.4545H23.4261V31.517ZM33.9613 31.517L37.1147 26.4545H38.2738V33H37.2681V27.9375L34.1317 33H32.9556V26.4545H33.9613V31.517ZM44.4964 29.267V30.2045H40.8828V29.267H44.4964ZM41.1214 26.4545V33H40.1158V26.4545H41.1214ZM45.2635 26.4545V33H44.2578V26.4545H45.2635ZM47.1001 33V26.4545H49.7763C50.4808 26.4545 51.0405 26.6136 51.4553 26.9318C51.87 27.25 52.0774 27.6705 52.0774 28.1932C52.0774 28.5909 51.9595 28.8991 51.7237 29.1179C51.4879 29.3338 51.1854 29.4801 50.8161 29.5568C51.0575 29.5909 51.2919 29.6761 51.5192 29.8125C51.7493 29.9489 51.9396 30.1364 52.0902 30.375C52.2408 30.6108 52.3161 30.9006 52.3161 31.2443C52.3161 31.5795 52.2308 31.8793 52.0604 32.1435C51.8899 32.4077 51.6456 32.6165 51.3274 32.7699C51.0092 32.9233 50.6286 33 50.1854 33H47.1001ZM48.0547 32.0795H50.1854C50.532 32.0795 50.8033 31.9972 50.9993 31.8324C51.1953 31.6676 51.2933 31.4432 51.2933 31.1591C51.2933 30.821 51.1953 30.5554 50.9993 30.3622C50.8033 30.1662 50.532 30.0682 50.1854 30.0682H48.0547V32.0795ZM48.0547 29.1989H49.7763C50.0462 29.1989 50.2777 29.1619 50.4709 29.0881C50.6641 29.0114 50.8118 28.9034 50.9141 28.7642C51.0192 28.6222 51.0717 28.4545 51.0717 28.2614C51.0717 27.9858 50.9567 27.7699 50.7266 27.6136C50.4964 27.4545 50.1797 27.375 49.7763 27.375H48.0547V29.1989ZM56.5827 33.1364C55.9521 33.1364 55.408 32.9972 54.9506 32.7188C54.4961 32.4375 54.1452 32.0455 53.8981 31.5426C53.6538 31.0369 53.5316 30.4489 53.5316 29.7784C53.5316 29.108 53.6538 28.517 53.8981 28.0057C54.1452 27.4915 54.489 27.0909 54.9293 26.804C55.3725 26.5142 55.8896 26.3693 56.4805 26.3693C56.8214 26.3693 57.158 26.4261 57.4904 26.5398C57.8228 26.6534 58.1254 26.8381 58.3981 27.0938C58.6708 27.3466 58.8881 27.6818 59.0501 28.0994C59.212 28.517 59.293 29.0312 59.293 29.642V30.0682H54.2475V29.1989H58.2702C58.2702 28.8295 58.1964 28.5 58.0487 28.2102C57.9038 27.9205 57.6964 27.6918 57.4265 27.5241C57.1594 27.3565 56.8441 27.2727 56.4805 27.2727C56.0799 27.2727 55.7333 27.3722 55.4407 27.571C55.1509 27.767 54.9279 28.0227 54.7717 28.3381C54.6154 28.6534 54.5373 28.9915 54.5373 29.3523V29.9318C54.5373 30.4261 54.6225 30.8452 54.793 31.1889C54.9663 31.5298 55.2063 31.7898 55.5131 31.9688C55.82 32.1449 56.1765 32.233 56.5827 32.233C56.8469 32.233 57.0856 32.196 57.2987 32.1222C57.5146 32.0455 57.7006 31.9318 57.8569 31.7812C58.0131 31.6278 58.1339 31.4375 58.2191 31.2102L59.1907 31.483C59.0884 31.8125 58.9165 32.1023 58.6751 32.3523C58.4336 32.5994 58.1353 32.7926 57.7802 32.9318C57.4251 33.0682 57.0259 33.1364 56.5827 33.1364ZM63.4819 33.1364C62.8683 33.1364 62.3398 32.9915 61.8967 32.7017C61.4535 32.4119 61.1126 32.0128 60.8739 31.5043C60.6353 30.9957 60.516 30.4148 60.516 29.7614C60.516 29.0966 60.6381 28.5099 60.8825 28.0014C61.1296 27.4901 61.4734 27.0909 61.9137 26.804C62.3569 26.5142 62.8739 26.3693 63.4648 26.3693C63.9251 26.3693 64.3398 26.4545 64.7092 26.625C65.0785 26.7955 65.381 27.0341 65.6168 27.3409C65.8526 27.6477 65.9989 28.0057 66.0558 28.4148H65.0501C64.9734 28.1165 64.8029 27.8523 64.5387 27.6222C64.2773 27.3892 63.9251 27.2727 63.4819 27.2727C63.0898 27.2727 62.7461 27.375 62.4506 27.5795C62.158 27.7812 61.9293 28.0668 61.7646 28.4361C61.6026 28.8026 61.5217 29.233 61.5217 29.7273C61.5217 30.233 61.6012 30.6733 61.7603 31.0483C61.9222 31.4233 62.1495 31.7145 62.4421 31.9219C62.7376 32.1293 63.0842 32.233 63.4819 32.233C63.7433 32.233 63.9805 32.1875 64.1935 32.0966C64.4066 32.0057 64.587 31.875 64.7347 31.7045C64.8825 31.5341 64.9876 31.3295 65.0501 31.0909H66.0558C65.9989 31.4773 65.8583 31.8253 65.6339 32.1349C65.4123 32.4418 65.1183 32.6861 64.7518 32.8679C64.3881 33.0469 63.9648 33.1364 63.4819 33.1364ZM67.0103 27.392V26.4545H72.3285V27.392H70.1808V33H69.1751V27.392H67.0103ZM74.8011 31.517L77.9545 26.4545H79.1136V33H78.108V27.9375L74.9716 33H73.7955V26.4545H74.8011V31.517ZM86.1033 26.4545V32.0625H87.0238V35.1136H86.0181V33H80.9556V26.4545H81.9613V32.0625H85.0977V26.4545H86.1033ZM89.5785 31.517L92.7319 26.4545H93.891V33H92.8853V27.9375L89.7489 33H88.5728V26.4545H89.5785V31.517ZM96.7386 31.517L99.892 26.4545H101.051V33H100.045V27.9375L96.9091 33H95.733V26.4545H96.7386V31.517ZM99.2273 24.2727H100.165C100.165 24.733 100.006 25.1094 99.6875 25.402C99.3693 25.6946 98.9375 25.8409 98.392 25.8409C97.8551 25.8409 97.4276 25.6946 97.1094 25.402C96.794 25.1094 96.6364 24.733 96.6364 24.2727H97.5739C97.5739 24.4943 97.6349 24.6889 97.7571 24.8565C97.8821 25.0241 98.0938 25.108 98.392 25.108C98.6903 25.108 98.9034 25.0241 99.0312 24.8565C99.1619 24.6889 99.2273 24.4943 99.2273 24.2727Z" fill="white"/>
<path d="M0.5 3V34.5" stroke="white" stroke-linecap="round"/>
</svg>
